<svg xmlns="http://www.w3.org/2000/svg" viewBox="0 0 24 24"><g data-name="Layer 2"><path d="M11.15,19.24l.16,0a2.87,2.87,0,0,1,1.38,0l.16,0A2.84,2.84,0,0,1,15,22h2a4.84,4.84,0,0,0-3.67-4.7l-.15,0a4.84,4.84,0,0,0-2.35,0l-.16,0A4.83,4.83,0,0,0,7,22H9A2.84,2.84,0,0,1,11.15,19.24Z"/><path d="M18.33,8.3l-.15,0a4.84,4.84,0,0,0-2.35,0l-.16,0A4.82,4.82,0,0,0,12.43,11,3,3,0,0,0,12,11a3,3,0,0,0-.43,0A4.82,4.82,0,0,0,8.33,8.3l-.15,0a4.84,4.84,0,0,0-2.35,0l-.16,0A4.83,4.83,0,0,0,2,13H4a2.84,2.84,0,0,1,2.15-2.76l.16,0a2.9,2.9,0,0,1,1.38,0l.16,0A2.83,2.83,0,0,1,9.8,12a3,3,0,1,0,4.4,0,2.83,2.83,0,0,1,2-1.73l.16,0a2.9,2.9,0,0,1,1.38,0l.16,0A2.84,2.84,0,0,1,20,13h2A4.84,4.84,0,0,0,18.33,8.3Z"/><circle cx="7" cy="5" r="3"/><circle cx="17" cy="5" r="3"/></g></svg>