<svg xmlns="http://www.w3.org/2000/svg" width="64" height="64" viewBox="0 0 16.933 16.933"><path style="line-height:normal;font-variant-ligatures:normal;font-variant-position:normal;font-variant-caps:normal;font-variant-numeric:normal;font-variant-alternates:normal;font-feature-settings:normal;text-indent:0;text-align:start;text-decoration-line:none;text-decoration-style:solid;text-decoration-color:#000;text-transform:none;text-orientation:mixed;white-space:normal;shape-padding:0;isolation:auto;mix-blend-mode:normal;solid-color:#000;solid-opacity:1" d="M7.4082031 1.8515625V2.6464844H7.9375V1.8515625zM7.4082031 3.1757812V3.96875H7.9375V3.1757812zM7.9375 2.6464844V3.1757812H8.7304688V2.6464844zM6.6152344 2.6464844V3.1757812H7.4082031V2.6464844zM3.4394531 12.964844c-.4352423 0-.792969.357726-.7929687.792968-3e-7.435243.3577264.794922.7929687.794922.4352423 0 .792969-.359679.7929688-.794922 2e-7-.435242-.3577265-.792968-.7929688-.792968zm0 .529297c.1492593 0 .2656251.114412.265625.263671 1e-7.14926-.1163657.265626-.265625.265626-.1492593 0-.2636719-.116366-.2636719-.265626 0-.149259.1144126-.263671.2636719-.263671zM12.964844 11.376953v.792969h.529297v-.792969zM12.964844 12.699219v.794922h.529297v-.794922zM12.169922 12.169922v.529297h.794922v-.529297zM13.494141 12.169922v.529297h.792968v-.529297zM10.583984.79296875c-.435242 5.8e-7-.7949217.35967995-.7949215.79492185-2e-7.435242.3596795.7929682.7949215.7929688.435243 2e-7.792969-.3577263.792969-.7929688 0-.4352425-.357726-.7949221-.792969-.79492185zm0 .52929685c.14926-1e-7.263672.1163657.263672.265625 0 .1492594-.114412.263672-.263672.2636719-.149259-2e-7-.265625-.1144127-.265625-.2636719 0-.1492591.116366-.2656248.265625-.265625zM4.6308594 2.7402344C4.2917863 2.9359984 4.2173796 3.2272429 4.2304688 3.4453125 4.2435579 3.6633821 4.3398437 3.8242188 4.3398438 3.8242188L11.21875 15.740234c0 0 .09113.162833.273438.283204.182309.12037.465813.204886.810546.0059.343247-.198174.41348-.487008.400391-.705078-.01309-.21807-.109375-.378907-.109375-.378907L5.7148438 3.03125c0 0-.091128-.1647859-.2734376-.2851562C5.259097 2.6257234 4.9733642 2.5424891 4.6308594 2.7402344zM5.1503906 3.1875c.06455.04262.1054688.1074219.1054688.1074219L12.134766 15.210938c0 0 .03638.06732.04101.144531.0046.07721-.01861.148607-.136719.216797-.118761.06856-.191308.05238-.255859.0098-.06455-.04262-.105469-.107422-.105469-.107422L4.7988281 3.5605469c0 0-.036381-.069272-.041016-.1464844C4.753178 3.3368505 4.7682139 3.2721482 4.8945312 3.1992188 5.0070879 3.1342341 5.0858403 3.1448804 5.1503906 3.1875z" color="#000" enable-background="accumulate" font-family="sans-serif" font-weight="400" overflow="visible"/><path style="line-height:normal;font-variant-ligatures:normal;font-variant-position:normal;font-variant-caps:normal;font-variant-numeric:normal;font-variant-alternates:normal;font-feature-settings:normal;text-indent:0;text-align:start;text-decoration-line:none;text-decoration-style:solid;text-decoration-color:#000;text-transform:none;text-orientation:mixed;white-space:normal;shape-padding:0;isolation:auto;mix-blend-mode:normal;solid-color:#000;solid-opacity:1" d="M12.302734 2.7402344C11.963266 2.5442423 11.674497 2.6257234 11.492188 2.7460938 11.309878 2.8664641 11.21875 3.03125 11.21875 3.03125L8.2382812 8.1933594 8.6953125 8.4589844 11.677734 3.2949219c0 0 .04092-.064802.105469-.1074219.06455-.04262.138642-.055957.255859.011719.119635.069071.141354.1376317.136719.2148437-.0046.077212-.04101.1464844-.04101.1464844L8.8476562 9.2519531 9.3066406 9.5175781 12.59375 3.8242188c0 0 .09629-.1608366.109375-.3789063.01309-.2180697-.05678-.506696-.400391-.7050781zM7.6269531 9.2519531L4.3398438 14.945312c0 0-.096286.160837-.109375.378907-.013089.21807.058908.507923.4003906.705078.3412612.197027.6282377.114511.8105468-.0059.1823092-.120371.2734376-.283204.2734376-.283204L8.6953125 10.576172 8.2382812 10.310547 5.2558594 15.474609c0 0-.040918.0648-.1054688.107422-.064551.04262-.1370694.05881-.2558594-.0098-.1112585-.06424-.1413533-.139585-.1367187-.216797.00463-.07721.041016-.144531.041016-.144531L8.0839844 9.5175781z" color="#000" enable-background="accumulate" font-family="sans-serif" font-weight="400" overflow="visible"/><path style="line-height:normal;font-variant-ligatures:normal;font-variant-position:normal;font-variant-caps:normal;font-variant-numeric:normal;font-variant-alternates:normal;font-feature-settings:normal;text-indent:0;text-align:start;text-decoration-line:none;text-decoration-style:solid;text-decoration-color:#000;text-transform:none;text-orientation:mixed;white-space:normal;shape-padding:0;isolation:auto;mix-blend-mode:normal;solid-color:#000;solid-opacity:1" d="m 12.169922,3.7050781 v 0.5273438 h 1.058594 V 7.9375 H 9.7890625 v 0.5292969 h 3.7050785 a 0.26460981,0.26460981 0 0 0 0.263671,-0.265625 V 3.96875 A 0.26460981,0.26460981 0 0 0 13.494141,3.7050781 Z" color="#000" enable-background="accumulate" font-family="sans-serif" font-weight="400" overflow="visible"/><path style="line-height:normal;font-variant-ligatures:normal;font-variant-position:normal;font-variant-caps:normal;font-variant-numeric:normal;font-variant-alternates:normal;font-feature-settings:normal;text-indent:0;text-align:start;text-decoration-line:none;text-decoration-style:solid;text-decoration-color:#000;text-transform:none;text-orientation:mixed;white-space:normal;shape-padding:0;isolation:auto;mix-blend-mode:normal;solid-color:#000;solid-opacity:1" d="M13.494141 4.7617188v.5292968h1.953125l-.337891.6757813a.26460981.26460981 0 000 .2363281l.470703.9414062-.470703.9394532a.26460981.26460981 0 000 .2363281l.337891.6757813H11.642578V8.2011719h-.529297v1.0585937a.26460981.26460981 0 00.263672.265625H15.875a.26460981.26460981 0 00.236328-.3828125l-.46875-.9414062.46875-.9394531a.26460981.26460981 0 000-.2363282l-.46875-.9394531.46875-.9414063A.26460981.26460981 0 0015.875 4.7617188zM3.4140625 3.7050781A.26460981.26460981 0 003.1757812 3.96875v4.2324219a.26460981.26460981 0 00.2636719.265625H7.1445312V7.9375H3.7050781V4.2324219H4.7617188V3.7050781H3.4394531a.26460981.26460981 0 00-.025391 0z" color="#000" enable-background="accumulate" font-family="sans-serif" font-weight="400" overflow="visible"/><path style="line-height:normal;font-variant-ligatures:normal;font-variant-position:normal;font-variant-caps:normal;font-variant-numeric:normal;font-variant-alternates:normal;font-feature-settings:normal;text-indent:0;text-align:start;text-decoration-line:none;text-decoration-style:solid;text-decoration-color:#000;text-transform:none;text-orientation:mixed;white-space:normal;shape-padding:0;isolation:auto;mix-blend-mode:normal;solid-color:#000;solid-opacity:1" d="M 1.0585938,4.7617188 A 0.26460981,0.26460981 0 0 0 0.82226562,5.1445312 L 1.2910156,6.0859375 0.82226562,7.0253906 a 0.26460981,0.26460981 0 0 0 0,0.2363282 L 1.2910156,8.2011719 0.82226562,9.1425781 A 0.26460981,0.26460981 0 0 0 1.0585938,9.5253906 H 5.5566406 A 0.26460981,0.26460981 0 0 0 5.8203125,9.2597656 V 8.2011719 H 5.2910156 V 8.9960938 H 1.4863281 L 1.8242188,8.3203125 a 0.26460981,0.26460981 0 0 0 0,-0.2363281 L 1.3535156,7.1445312 1.8242188,6.203125 a 0.26460981,0.26460981 0 0 0 0,-0.2363281 L 1.4863281,5.2910156 h 1.953125 V 4.7617188 Z" color="#000" enable-background="accumulate" font-family="sans-serif" font-weight="400" overflow="visible"/></svg>